<svg id="visual" viewBox="0 0 900 600" width="900" height="600" xmlns="http://www.w3.org/2000/svg" xmlns:xlink="http://www.w3.org/1999/xlink" version="1.1"><rect x="0" y="0" width="900" height="600" fill="#002233"></rect><path d="M0 494L21.5 484.7C43 475.3 86 456.7 128.8 449.2C171.7 441.7 214.3 445.3 257.2 435C300 424.7 343 400.3 385.8 408.8C428.7 417.3 471.3 458.7 514.2 477.7C557 496.7 600 493.3 642.8 491.7C685.7 490 728.3 490 771.2 483.7C814 477.3 857 464.7 878.5 458.3L900 452L900 601L878.5 601C857 601 814 601 771.2 601C728.3 601 685.7 601 642.8 601C600 601 557 601 514.2 601C471.3 601 428.7 601 385.8 601C343 601 300 601 257.2 601C214.3 601 171.7 601 128.8 601C86 601 43 601 21.5 601L0 601Z" fill="#0066FF" stroke-linecap="round" stroke-linejoin="miter"></path></svg>