<svg xmlns="http://www.w3.org/2000/svg" xmlns:xlink="http://www.w3.org/1999/xlink" viewBox="0 0 275 65" preserveAspectRatio="xMidYMid" style="display: block; shape-rendering: auto; background: transparent; --darkreader-inline-bgimage: initial; --darkreader-inline-bgcolor: #191b1c;" width="275" height="65" data-darkreader-inline-bgimage="" data-darkreader-inline-bgcolor=""><style type="text/css">
  .ld-text text {
    text-anchor: middle;
    dominant-baseline: middle;
    font-size: 40px;
    opacity: 0;
    user-select: none;
    pointer-events: none;
  }
</style>
<g style="transform-origin:137.5px 32.5px;transform:scale(1)" class="ld-text">
<g transform="translate(137.5,32.5)">
  <g transform="scale(0.5000) translate(0,0)"><g class="path" style="opacity: 1; transform-origin: -221.32px -1.03px; transform: matrix3d(0.91, 0, 0, 0, 0, 0.91, 0, 0, 0, 0, 0.91, 0, 0, 0, 0, 1); animation: 1s linear -0.61875s infinite normal forwards running animate-mugkeho4wis; transform-box: view-box;"><path d="M21.84 17.77L21.84 17.77Q26 16.41 31.52 16.41Q37.04 16.41 37.04 19.61L37.04 19.61Q37.04 21.53 34.96 22.77Q32.88 24.01 28.96 24.01L28.96 24.01Q22.80 24.01 19.04 21.05L19.04 21.05Q17.60 22.57 16.80 23.61Q16 24.65 15 27.61Q14 30.57 14 34.73Q14 38.89 17.52 41.97Q21.04 45.05 24.84 45.05Q28.64 45.05 31.92 43.61Q35.20 42.17 37.12 40.25Q39.04 38.33 40.48 36.01L40.48 36.01Q42.48 33.05 43.12 30.81L43.12 30.81L44.72 31.21Q44.72 31.45 44.12 32.89Q43.52 34.33 41.92 36.69Q40.32 39.05 38.08 41.25Q35.84 43.45 31.92 45.05Q28 46.65 23.36 46.65L23.36 46.65Q14.80 46.65 10 43.01Q5.20 39.37 5.20 33.53Q5.20 27.69 8.84 24.25Q12.48 20.81 17.44 19.45L17.44 19.45Q13.84 15.05 13.84 9.01Q13.84 2.97 18.68-1.75Q23.52-6.47 32.64-6.47L32.64-6.47Q39.60-6.47 43.32-4.03Q47.04-1.59 47.04 2.05Q47.04 5.69 45.16 9.49Q43.28 13.29 43.04 15.53L43.04 15.53L41.36 15.53Q41.60 13.13 43.48 9.37Q45.36 5.61 45.36 2.37Q45.36-0.87 41.96-2.95Q38.56-5.03 33.32-5.03Q28.08-5.03 24.40-0.99Q20.72 3.05 20.72 11.37L20.72 11.37Q20.72 15.85 21.84 17.77 zM23.04 20.09Q23.44 20.65 25.08 21.61Q26.72 22.57 29.44 22.57Q32.16 22.57 33.80 21.73Q35.44 20.89 35.44 19.77L35.44 19.77Q35.44 17.85 31.12 17.85Q26.80 17.85 22.48 19.13L22.48 19.13Q22.64 19.53 23.04 20.09" style="fill: rgb(81, 202, 204);" transform="translate(-247.440,-21.123)"></path></g><g class="path" style="opacity: 1; transform-origin: -179.48px 5.93px; transform: matrix3d(0.91, 0, 0, 0, 0, 0.91, 0, 0, 0, 0, 0.91, 0, 0, 0, 0, 1); animation: 1s linear -0.5775s infinite normal forwards running animate-mugkeho4wis; transform-box: view-box;"><path d="M80.72 41.37L80.72 41.37Q82.64 41.37 84.72 39.13L84.72 39.13L85.92 40.09Q85.36 41.21 83.44 42.09Q81.52 42.97 79.20 42.97L79.20 42.97Q71.92 42.97 71.92 36.41L71.92 36.41Q71.92 33.61 73.36 26.41Q74.80 19.21 74.80 16.97L74.80 16.97Q74.80 13.53 71.52 13.53L71.52 13.53Q68.88 13.53 66.44 16.97Q64 20.41 62.40 26.41L62.40 26.41L59.68 41.37Q62.16 41.13 63.76 39.13L63.76 39.13L64.96 40.09Q62.56 42.97 58.96 42.97Q55.36 42.97 53.32 41.13Q51.28 39.29 51.28 36.33L51.28 36.33Q51.28 35.21 52.56 27.53L52.56 27.53L55.20 12.73Q52.80 12.97 51.20 14.97L51.20 14.97L50 14.01Q52.40 11.13 56.04 11.13Q59.68 11.13 61.68 12.97Q63.68 14.81 63.68 18.17L63.68 18.17L63.68 18.65Q66.96 11.13 73.92 11.13L73.92 11.13Q78.64 11.13 81.28 13.81Q83.92 16.49 83.92 21.21L83.92 21.21Q83.92 23.69 82.40 30.77Q80.88 37.85 80.72 41.37" style="fill: rgb(157, 248, 113);" transform="translate(-247.440,-21.123)"></path></g><g class="path" style="opacity: 1; transform-origin: -144px 5.93px; transform: matrix3d(0.91, 0, 0, 0, 0, 0.91, 0, 0, 0, 0, 0.91, 0, 0, 0, 0, 1); animation: 1s linear -0.53625s infinite normal forwards running animate-mugkeho4wis; transform-box: view-box;"><path d="M106.96 11.13L106.96 11.13Q117.12 11.13 117.12 19.21L117.12 19.21Q117.12 24.25 112.36 26.85Q107.60 29.45 98.80 29.53L98.80 29.53Q98.64 32.41 98.64 34.09L98.64 34.09Q98.64 37.69 100.28 39.41Q101.92 41.13 104.40 41.13Q106.88 41.13 108.92 40.17Q110.96 39.21 112.16 37.89Q113.36 36.57 114.24 35.13L114.24 35.13Q115.84 32.49 115.84 31.77L115.84 31.77L117.28 32.41Q117.04 33.69 115.84 35.81Q114.64 37.93 113.20 39.29Q111.76 40.65 108.96 41.81Q106.16 42.97 102.72 42.97L102.72 42.97Q96.24 42.97 92.92 39.89Q89.60 36.81 89.60 31.45L89.60 31.45Q89.60 21.93 94.32 16.53Q99.04 11.13 106.96 11.13 zM115.12 19.21Q115.12 16.57 113.56 14.85Q112 13.13 108.92 13.13Q105.84 13.13 102.92 16.81Q100 20.49 99.04 27.69L99.04 27.69Q115.12 27.61 115.12 19.21L115.12 19.21" style="fill: rgb(224, 255, 119);" transform="translate(-247.440,-21.123)"></path></g><g class="path" style="opacity: 1; transform-origin: -97.84px 5.93px; transform: matrix3d(0.91, 0, 0, 0, 0, 0.91, 0, 0, 0, 0, 0.91, 0, 0, 0, 0, 1); animation: 1s linear -0.495s infinite normal forwards running animate-mugkeho4wis; transform-box: view-box;"><path d="M151.92 41.37L151.92 41.37Q153.84 41.37 155.92 39.13L155.92 39.13L157.12 40.09Q156.56 41.21 154.64 42.09Q152.72 42.97 150.40 42.97L150.40 42.97Q143.12 42.97 143.12 36.41L143.12 36.41Q143.12 33.61 144.56 26.41Q146 19.21 146 16.97L146 16.97Q146 13.53 142.72 13.53L142.72 13.53Q137.76 13.53 134.40 26.25L134.40 26.25L131.52 42.25L121.92 42.25L127.20 12.73Q124.80 12.97 123.20 14.97L123.20 14.97L122 14.01Q124.40 11.13 128.04 11.13Q131.68 11.13 133.68 12.97Q135.68 14.81 135.68 18.17L135.68 18.17L135.68 18.41Q138.80 11.13 145.12 11.13L145.12 11.13Q149.60 11.13 152.20 13.57Q154.80 16.01 155.04 20.41L155.04 20.41Q156.56 16.01 158.88 13.57Q161.20 11.13 165.60 11.13Q170 11.13 172.64 13.81Q175.28 16.49 175.28 21.21L175.28 21.21Q175.28 23.69 173.76 30.77Q172.24 37.85 172.08 41.37L172.08 41.37Q174 41.37 176.08 39.13L176.08 39.13L177.28 40.09Q176.72 41.21 174.80 42.09Q172.88 42.97 170.56 42.97L170.56 42.97Q163.28 42.97 163.28 36.41L163.28 36.41Q163.28 33.61 164.72 26.41Q166.16 19.21 166.16 16.97L166.16 16.97Q166.16 13.53 162.88 13.53L162.88 13.53Q157.12 13.53 153.60 30.65L153.60 30.65Q152.08 37.93 151.92 41.37" style="fill: rgb(222, 157, 214);" transform="translate(-247.440,-21.123)"></path></g><g class="path" style="opacity: 1; transform-origin: -48.8px 12.93px; transform: matrix3d(0.91, 0, 0, 0, 0, 0.91, 0, 0, 0, 0, 0.91, 0, 0, 0, 0, 1); animation: 1s linear -0.45375s infinite normal forwards running animate-mugkeho4wis; transform-box: view-box;"><path d="M186 12.73L186 12.73Q184.08 12.73 182 14.97L182 14.97L180.80 14.01Q181.36 12.89 183.28 12.01Q185.20 11.13 187.52 11.13L187.52 11.13Q194.80 11.13 194.80 17.69L194.80 17.69Q194.80 20.49 193.28 26.85Q191.76 33.21 191.76 35.45L191.76 35.45Q191.76 39.29 194.96 39.29L194.96 39.29Q197.60 39.29 200.12 35.69Q202.64 32.09 204.24 26.01L204.24 26.01L206.88 11.85Q212.80 11.85 215.52 11.37L215.52 11.37L216.56 11.13L211.52 39.45Q210.08 47.69 204.84 52.33Q199.60 56.97 191.28 56.97L191.28 56.97Q186.24 56.97 183.48 55.25Q180.72 53.53 180.72 50.77Q180.72 48.01 182.40 46.37Q184.08 44.73 187.16 44.73Q190.24 44.73 192.88 45.73Q195.52 46.73 196.72 46.89L196.72 46.89L196.56 48.33Q195.20 48.17 192.64 47.21Q190.08 46.25 187.56 46.25Q185.04 46.25 183.72 47.37Q182.40 48.49 182.40 50.61Q182.40 52.73 184.72 54.05Q187.04 55.37 190.48 55.37L190.48 55.37Q198.80 55.37 200.72 45.37L200.72 45.37L202.72 34.33Q199.36 41.69 192.56 41.69L192.56 41.69Q187.92 41.69 185.40 39.05Q182.88 36.41 182.88 31.61L182.88 31.61Q182.88 29.13 184.36 22.69Q185.84 16.25 186 12.73" style="fill: rgb(255, 112, 142);" transform="translate(-247.440,-21.123)"></path></g><g class="path" style="opacity: 1; transform-origin: 41.96px -2.15px; transform: matrix3d(0.91, 0, 0, 0, 0, 0.91, 0, 0, 0, 0, 0.91, 0, 0, 0, 0, 1); animation: 1s linear -0.4125s infinite normal forwards running animate-mugkeho4wis; transform-box: view-box;"><path d="M282.24-5.35L282.24-5.35Q290-5.35 295.52-8.39L295.52-8.39L296.40-6.95Q291.20-3.91 284.96-3.67L284.96-3.67Q279.92 1.13 276.44 12.33Q272.96 23.53 272.96 36.17L272.96 36.17Q272.96 43.93 275.80 47.13Q278.64 50.33 282.48 50.33L282.48 50.33Q285.04 50.33 287.44 49.17Q289.84 48.01 291.16 46.89Q292.48 45.77 294.64 43.61L294.64 43.61Q293.36 39.77 293.36 31.65Q293.36 23.53 296.16 14.13Q298.96 4.73 303.60-1.27Q308.24-7.27 313.20-7.27L313.20-7.27Q315.60-7.27 316.84-5.99Q318.08-4.71 318.08-1.35L318.08-1.35Q318.08 5.45 313.72 16.73Q309.36 28.01 302.48 37.29L302.48 37.29Q303.20 43.45 306.40 46.41Q309.60 49.37 314.56 49.37L314.56 49.37Q323.68 49.37 330.96 31.93L330.96 31.93Q336.56 18.49 336.56 4.41Q336.56-9.67 331.12-15.11L331.12-15.11L332.32-16.31Q338.32-10.31 338.32 4.65L338.32 4.65Q338.32 18.57 332.64 32.65L332.64 32.65Q323.68 54.25 308.24 54.25L308.24 54.25Q300.32 54.25 296.64 47.93L296.64 47.93Q295.68 46.33 295.28 45.53L295.28 45.53Q286.80 54.25 276.56 54.25L276.56 54.25Q269.92 54.25 266.68 49.81Q263.44 45.37 263.44 39.05Q263.44 32.73 265.08 26.45Q266.72 20.17 268.88 15.69Q271.04 11.21 274.08 6.89L274.08 6.89Q278.24 0.73 282.64-3.67L282.64-3.67Q280-3.67 275.76-4.23L275.76-4.23Q266.88-4.71 266.24-4.71L266.24-4.71Q255.04-4.71 248.64 0.93Q242.24 6.57 242.24 16.49L242.24 16.49Q242.24 21.13 244.40 25.21L244.40 25.21Q245.52 27.37 249.28 30.17L249.28 30.17Q250.08 30.81 251.84 31.53Q253.60 32.25 253.68 32.25L253.68 32.25L255.04 32.65L254.80 34.33Q253.28 34.33 250.40 32.73Q247.52 31.13 245.48 29.33Q243.44 27.53 241.96 24.13Q240.48 20.73 240.48 16.49L240.48 16.49Q240.48 5.93 247.44-0.27Q254.40-6.47 266.24-6.47L266.24-6.47Q271.04-6.47 275.04-5.91Q279.04-5.35 282.24-5.35" style="fill: rgb(81, 202, 204);" transform="translate(-247.440,-21.123)"></path></g><g class="path" style="opacity: 1; transform-origin: 61.8px -6.63px; transform: matrix3d(0.91, 0, 0, 0, 0, 0.91, 0, 0, 0, 0, 0.91, 0, 0, 0, 0, 1); animation: 1s linear -0.37125s infinite normal forwards running animate-mugkeho4wis; transform-box: view-box;"><path d="M302.24 33.29L302.24 33.29L302.24 34.49Q303.04 33.37 304.32 31.29L304.32 31.29Q309.52 23.21 312.88 13.93Q316.24 4.65 316.24-1.35L316.24-1.35Q316.24-5.51 313.20-5.51L313.20-5.51Q312-5.51 310.56-4.87L310.56-4.87Q307.92-2.39 305.44 4.97L305.44 4.97Q302.24 14.41 302.24 33.29" style="fill: rgb(157, 248, 113);" transform="translate(-247.440,-21.123)"></path></g><g class="path" style="opacity: 1; transform-origin: 103.96px 5.93px; transform: matrix3d(0.91, 0, 0, 0, 0, 0.91, 0, 0, 0, 0, 0.91, 0, 0, 0, 0, 1); animation: 1s linear -0.33s infinite normal forwards running animate-mugkeho4wis; transform-box: view-box;"><path d="M358.08 40.09Q355.68 42.97 352.08 42.97Q348.48 42.97 346.44 41.13Q344.40 39.29 344.40 36.33L344.40 36.33Q344.40 35.29 345.68 27.61L345.68 27.61L348.32 13.29L344.96 13.29L345.12 11.85L348.56 11.85Q354.48 11.85 357.28 11.37L357.28 11.37L358.40 11.13L352.88 41.37Q355.28 41.13 356.88 39.13L356.88 39.13L358.08 40.09" style="fill: rgb(224, 255, 119);" transform="translate(-247.440,-21.123)"></path></g><g class="path" style="opacity: 1; transform-origin: 107.72px -21.79px; transform: matrix3d(0.91, 0, 0, 0, 0, 0.91, 0, 0, 0, 0, 0.91, 0, 0, 0, 0, 1); animation: 1s linear -0.28875s infinite normal forwards running animate-mugkeho4wis; transform-box: view-box;"><path d="M351.04 3.45Q349.36 1.77 349.36-0.63Q349.36-3.03 351.04-4.75Q352.72-6.47 355.12-6.47Q357.52-6.47 359.24-4.75Q360.96-3.03 360.96-0.63Q360.96 1.77 359.24 3.45Q357.52 5.13 355.12 5.13Q352.72 5.13 351.04 3.45" style="fill: rgb(222, 157, 214);" transform="translate(-247.440,-21.123)"></path></g><g class="path" style="opacity: 1; transform-origin: 127.76px 0.01px; transform: matrix3d(0.91, 0, 0, 0, 0, 0.91, 0, 0, 0, 0, 0.91, 0, 0, 0, 0, 1); animation: 1s linear -0.2475s infinite normal forwards running animate-mugkeho4wis; transform-box: view-box;"><path d="M363.52 11.85L367.60 11.85L369.76 0.01Q375.68 0.01 378.56-0.47L378.56-0.47L379.60-0.71Q378.48 4.89 377.12 11.85L377.12 11.85L387.04 11.85L386.88 13.29L376.88 13.29Q372.88 33.93 372.88 38.17L372.88 38.17Q372.88 40.73 375.60 40.73Q378.32 40.73 380.56 37.29Q382.80 33.85 383.76 29.85L383.76 29.85L385.20 30.33Q382.24 42.97 372.96 42.97L372.96 42.97Q369.12 42.97 366.56 40.85Q364 38.73 364 34.93Q364 31.13 367.28 13.29L367.28 13.29L363.36 13.29L363.52 11.85" style="fill: rgb(255, 112, 142);" transform="translate(-247.440,-21.123)"></path></g><g class="path" style="opacity: 1; transform-origin: 158.16px -4.43px; transform: matrix3d(0.91, 0, 0, 0, 0, 0.91, 0, 0, 0, 0, 0.91, 0, 0, 0, 0, 1); animation: 1s linear -0.20625s infinite normal forwards running animate-mugkeho4wis; transform-box: view-box;"><path d="M418.40 41.37L418.40 41.37Q420.32 41.37 422.40 39.13L422.40 39.13L423.60 40.09Q423.04 41.21 421.12 42.09Q419.20 42.97 416.88 42.97L416.88 42.97Q409.60 42.97 409.60 36.41L409.60 36.41Q409.60 33.61 411.04 26.41Q412.48 19.21 412.48 16.97L412.48 16.97Q412.48 13.53 409.20 13.53L409.20 13.53Q406.48 13.53 403.96 17.21Q401.44 20.89 399.84 27.21L399.84 27.21L397.20 42.25L387.60 42.25L396.48-7.99Q394.08-7.75 392.48-5.75L392.48-5.75L391.28-6.71Q393.68-9.59 397.32-9.59Q400.96-9.59 402.96-7.75Q404.96-5.91 404.96-2.55L404.96-2.55Q404.96-1.91 404.80-0.47L404.80-0.47L401.44 18.49Q404.72 11.13 411.60 11.13L411.60 11.13Q416.32 11.13 418.96 13.81Q421.60 16.49 421.60 21.21L421.60 21.21Q421.60 23.69 420.08 30.77Q418.56 37.85 418.40 41.37" style="fill: rgb(81, 202, 204);" transform="translate(-247.440,-21.123)"></path></g><g class="path" style="opacity: 1; transform-origin: 188.04px 5.93px; transform: matrix3d(0.91, 0, 0, 0, 0, 0.91, 0, 0, 0, 0, 0.91, 0, 0, 0, 0, 1); animation: 1s linear -0.165s infinite normal forwards running animate-mugkeho4wis; transform-box: view-box;"><path d="M442.16 40.09Q439.76 42.97 436.16 42.97Q432.56 42.97 430.52 41.13Q428.48 39.29 428.48 36.33L428.48 36.33Q428.48 35.29 429.76 27.61L429.76 27.61L432.40 13.29L429.04 13.29L429.20 11.85L432.64 11.85Q438.56 11.85 441.36 11.37L441.36 11.37L442.48 11.13L436.96 41.37Q439.36 41.13 440.96 39.13L440.96 39.13L442.16 40.09" style="fill: rgb(157, 248, 113);" transform="translate(-247.440,-21.123)"></path></g><g class="path" style="opacity: 1; transform-origin: 191.8px -21.79px; transform: matrix3d(0.91, 0, 0, 0, 0, 0.91, 0, 0, 0, 0, 0.91, 0, 0, 0, 0, 1); animation: 1s linear -0.12375s infinite normal forwards running animate-mugkeho4wis; transform-box: view-box;"><path d="M435.12 3.45Q433.44 1.77 433.44-0.63Q433.44-3.03 435.12-4.75Q436.80-6.47 439.20-6.47Q441.60-6.47 443.32-4.75Q445.04-3.03 445.04-0.63Q445.04 1.77 443.32 3.45Q441.60 5.13 439.20 5.13Q436.80 5.13 435.12 3.45" style="fill: rgb(224, 255, 119);" transform="translate(-247.440,-21.123)"></path></g><g class="path" style="opacity: 1; transform-origin: 217.48px 5.93px; transform: matrix3d(0.91, 0, 0, 0, 0, 0.91, 0, 0, 0, 0, 0.91, 0, 0, 0, 0, 1); animation: 1s linear -0.0825s infinite normal forwards running animate-mugkeho4wis; transform-box: view-box;"><path d="M477.68 41.37L477.68 41.37Q479.60 41.37 481.68 39.13L481.68 39.13L482.88 40.09Q482.32 41.21 480.40 42.09Q478.48 42.97 476.16 42.97L476.16 42.97Q468.88 42.97 468.88 36.41L468.88 36.41Q468.88 33.61 470.32 26.41Q471.76 19.21 471.76 16.97L471.76 16.97Q471.76 13.53 468.48 13.53L468.48 13.53Q465.84 13.53 463.40 16.97Q460.96 20.41 459.36 26.41L459.36 26.41L456.64 41.37Q459.12 41.13 460.72 39.13L460.72 39.13L461.92 40.09Q459.52 42.97 455.92 42.97Q452.32 42.97 450.28 41.13Q448.24 39.29 448.24 36.33L448.24 36.33Q448.24 35.21 449.52 27.53L449.52 27.53L452.16 12.73Q449.76 12.97 448.16 14.97L448.16 14.97L446.96 14.01Q449.36 11.13 453 11.13Q456.64 11.13 458.64 12.97Q460.64 14.81 460.64 18.17L460.64 18.17L460.64 18.65Q463.92 11.13 470.88 11.13L470.88 11.13Q475.60 11.13 478.24 13.81Q480.88 16.49 480.88 21.21L480.88 21.21Q480.88 23.69 479.36 30.77Q477.84 37.85 477.68 41.37" style="fill: rgb(222, 157, 214);" transform="translate(-247.440,-21.123)"></path></g><g class="path" style="opacity: 1; transform-origin: 242.92px 17.73px; transform: matrix3d(0.91, 0, 0, 0, 0, 0.91, 0, 0, 0, 0, 0.91, 0, 0, 0, 0, 1); animation: 1s linear -0.04125s infinite normal forwards running animate-mugkeho4wis; transform-box: view-box;"><path d="M487.48 41.73Q486.32 40.57 486.32 38.89Q486.32 37.21 487.48 36.01Q488.64 34.81 490.32 34.81Q492 34.81 493.20 36.01Q494.40 37.21 494.40 38.89Q494.40 40.57 493.20 41.73Q492 42.89 490.32 42.89Q488.64 42.89 487.48 41.73" style="fill: rgb(255, 112, 142);" transform="translate(-247.440,-21.123)"></path></g><g class="path" style="opacity: 1; transform-origin: 248px -8.31px; transform: matrix3d(0.91, 0, 0, 0, 0, 0.91, 0, 0, 0, 0, 0.91, 0, 0, 0, 0, 1); animation: 1s linear 0s infinite normal forwards running animate-mugkeho4wis; transform-box: view-box;"><path d="M492.96 32.49L490.80 32.25L497.76-6.87L500.08-6.55L492.96 32.49" style="fill: rgb(81, 202, 204);" transform="translate(-247.440,-21.123)"></path></g></g><text dy="0.35em" fill="#51cacc" font-family="Sail" font-size="40">Enemy Within!</text>
</g>
</g><style type="text/css">@keyframes animate-mugkeho4wis { 0.00% {transform: translate(0.00px,0.00px) rotate(0.00deg) scale(0.91, 0.91) skew(0deg, 0.00deg) ;opacity: 1.00;}4.00% {transform: translate(0.00px,0.00px) rotate(0.00deg) scale(0.91, 0.91) ;}8.00% {animation-timing-function: cubic-bezier(0.69,0.60,0.35,0.27);transform: translate(0.00px,0.00px) rotate(0.00deg) scale(0.91, 0.91) ;}14.00% {transform: translate(0.00px,0.00px) rotate(0.00deg) scale(0.93, 0.93) ;}18.00% {transform: translate(0.00px,0.00px) rotate(0.00deg) scale(0.94, 0.94) ;}22.00% {animation-timing-function: cubic-bezier(0.67,0.66,0.34,0.33);transform: translate(0.00px,0.00px) rotate(0.00deg) scale(0.96, 0.96) ;}26.00% {transform: translate(0.00px,0.00px) rotate(0.00deg) scale(0.97, 0.97) ;}30.00% {transform: translate(0.00px,0.00px) rotate(0.00deg) scale(0.99, 0.99) ;}34.00% {animation-timing-function: cubic-bezier(0.65,0.71,0.32,0.38);transform: translate(0.00px,0.00px) rotate(0.00deg) scale(1.01, 1.01) ;}40.00% {animation-timing-function: cubic-bezier(0.64,0.74,0.31,0.41);transform: translate(0.00px,0.00px) rotate(0.00deg) scale(1.02, 1.02) ;}46.00% {animation-timing-function: cubic-bezier(0.60,0.91,0.23,0.63);transform: translate(0.00px,0.00px) rotate(0.00deg) scale(1.03, 1.03) ;}50.00% {transform: translate(0.00px,0.00px) rotate(0.00deg) scale(1.03, 1.03) ;}54.00% {transform: translate(0.00px,0.00px) rotate(0.00deg) scale(1.03, 1.03) ;}58.00% {animation-timing-function: cubic-bezier(0.69,0.60,0.35,0.27);transform: translate(0.00px,0.00px) rotate(0.00deg) scale(1.03, 1.03) ;}64.00% {transform: translate(0.00px,0.00px) rotate(0.00deg) scale(1.01, 1.01) ;}68.00% {transform: translate(0.00px,0.00px) rotate(0.00deg) scale(1.00, 1.00) ;}72.00% {animation-timing-function: cubic-bezier(0.67,0.66,0.34,0.33);transform: translate(0.00px,0.00px) rotate(0.00deg) scale(0.98, 0.98) ;}76.00% {animation-timing-function: cubic-bezier(0.66,0.68,0.33,0.35);transform: translate(0.00px,0.00px) rotate(0.00deg) scale(0.97, 0.97) ;}82.00% {animation-timing-function: cubic-bezier(0.65,0.71,0.32,0.38);transform: translate(0.00px,0.00px) rotate(0.00deg) scale(0.94, 0.94) ;}88.00% {animation-timing-function: cubic-bezier(0.65,0.73,0.31,0.40);transform: translate(0.00px,0.00px) rotate(0.00deg) scale(0.92, 0.92) ;}94.00% {animation-timing-function: cubic-bezier(0.63,0.80,0.28,0.48);transform: translate(0.00px,0.00px) rotate(0.00deg) scale(0.91, 0.91) ;}100.00% {animation-timing-function: cubic-bezier(0.63,0.80,0.28,0.48);transform: translate(0.00px,0.00px) rotate(0.00deg) scale(0.91, 0.91) ;} }</style><!-- [ldio] generated by https://loading.io --></svg>